<?xml version="1.0" standalone="no"?>
<!DOCTYPE svg PUBLIC "-//W3C//DTD SVG 20010904//EN"
 "http://www.w3.org/TR/2001/REC-SVG-20010904/DTD/svg10.dtd">
<svg version="1.0" xmlns="http://www.w3.org/2000/svg"
 width="512.000000pt" height="512.000000pt" viewBox="0 0 512.000000 512.000000"
 preserveAspectRatio="xMidYMid meet">
<metadata>
Created by potrace 1.11, written by Peter Selinger 2001-2013
</metadata>
<g transform="translate(0.000000,512.000000) scale(0.100000,-0.100000)"
fill="#000000" stroke="none">
<path d="M0 2560 l0 -2560 2560 0 2560 0 0 2560 0 2560 -2560 0 -2560 0 0
-2560z m2774 2409 c73 -49 160 -136 214 -216 18 -25 26 -52 27 -80 0 -22 -3
-39 -7 -36 -5 2 -8 -2 -9 -9 0 -7 -2 -23 -3 -35 -2 -13 0 -21 2 -18 3 3 12 -4
20 -16 10 -15 17 -17 27 -9 10 8 15 8 21 -1 4 -7 3 -9 -3 -6 -5 3 -10 0 -10
-8 0 -19 2 -19 21 1 12 12 16 12 16 2 0 -7 9 -19 20 -25 16 -11 21 -10 29 5 6
9 11 12 11 5 0 -7 5 -13 11 -13 5 0 7 5 3 11 -5 8 -1 8 14 0 15 -8 23 -7 33 5
12 14 14 14 26 -2 7 -10 13 -13 13 -7 0 12 36 24 45 14 4 -3 10 -6 13 -6 27
-1 227 -140 237 -163 3 -7 1 -22 -5 -31 -14 -28 12 -56 52 -56 28 0 36 -5 52
-39 14 -30 16 -40 6 -46 -7 -4 -11 -13 -8 -20 3 -9 9 -8 21 4 38 39 7 -15 -55
-93 -15 -19 -25 -38 -22 -43 3 -5 0 -7 -8 -6 -7 2 -12 -4 -10 -12 3 -11 -1
-10 -17 4 -19 17 -19 17 -15 -13 6 -35 2 -38 -19 -17 -12 13 -21 9 -63 -27
-27 -23 -58 -47 -69 -53 -11 -6 -23 -26 -26 -45 -4 -22 -7 -26 -8 -11 -1 27
-34 30 -53 5 -7 -10 -22 -19 -33 -21 -45 -6 -65 -24 -65 -59 0 -18 -4 -33 -10
-33 -5 0 -9 6 -7 13 3 17 -44 9 -61 -11 -13 -16 -13 -16 -8 0 4 15 1 16 -20 8
-32 -13 -57 -13 -49 -1 3 6 -4 8 -17 5 -40 -7 -122 -17 -155 -17 -22 0 -33 -5
-33 -14 0 -9 5 -11 13 -7 6 4 9 4 5 -1 -4 -4 -3 -13 2 -20 7 -8 5 -12 -5 -12
-8 0 -12 4 -9 9 5 8 -17 12 -45 8 -7 -1 -20 8 -28 19 -18 27 -63 25 -63 -3 0
-18 -1 -18 -24 3 -14 13 -29 20 -34 17 -6 -3 -16 0 -24 7 -26 25 -103 63 -120
59 -10 -2 -18 0 -18 5 0 5 -24 17 -52 28 -29 10 -67 29 -84 42 -17 13 -38 23
-46 23 -19 0 -30 -24 -21 -46 5 -14 3 -15 -15 -5 -18 10 -22 9 -22 -4 0 -8 -7
-15 -16 -15 -8 0 -13 -4 -9 -9 3 -5 0 -13 -6 -17 -7 -4 -9 -3 -6 3 8 12 -16
36 -26 27 -9 -10 16 -44 33 -44 13 0 13 -1 0 -10 -8 -5 -10 -10 -4 -10 14 0
15 -48 1 -57 -5 -3 -7 -2 -4 4 3 5 0 10 -7 10 -8 0 -12 -9 -9 -21 3 -19 3 -19
-8 2 -9 17 -9 28 -1 48 17 36 -1 72 -26 52 -15 -11 -15 -11 -5 3 7 9 9 19 5
23 -4 4 -2 7 3 6 21 -5 25 1 16 19 -8 15 -6 25 11 47 25 31 34 64 17 64 -5 0
-7 5 -4 10 4 6 3 10 -2 9 -23 -4 -35 2 -29 17 3 8 2 12 -4 9 -18 -11 -124 110
-115 133 5 13 3 13 -12 1 -10 -7 -15 -10 -11 -5 4 5 3 18 -3 29 -9 15 -8 18 3
12 7 -3 5 0 -4 8 -10 8 -18 18 -18 22 0 4 8 14 18 21 10 8 12 13 5 14 -7 0
-13 4 -13 9 0 5 9 7 20 4 11 -3 20 0 20 6 0 8 16 11 43 10 46 -3 87 -17 87
-31 0 -5 8 -17 17 -26 16 -16 16 -16 10 1 -4 10 -7 24 -7 31 0 18 -73 56 -108
56 -16 0 -35 -7 -42 -15 -9 -11 -16 -13 -24 -5 -18 18 -50 11 -85 -20 -40 -36
-57 -28 -97 45 -6 11 -21 36 -33 57 l-22 36 63 48 c35 26 68 51 73 55 6 4 29
-10 53 -32 23 -22 42 -37 42 -32 0 4 11 -9 25 -30 14 -20 28 -37 31 -37 3 0 2
5 -1 10 -4 6 3 9 17 6 13 -2 22 -10 21 -17 -2 -8 15 -24 37 -36 23 -12 40 -17
40 -10 0 6 6 3 13 -6 17 -24 71 -38 87 -24 10 9 12 8 7 -5 -5 -14 -1 -18 16
-19 12 0 30 -2 40 -4 9 -2 17 3 17 11 0 22 20 16 30 -8 5 -13 9 -17 9 -9 1 8
4 11 8 8 3 -4 12 -2 20 4 9 8 13 8 13 1 0 -13 37 -7 56 9 8 6 14 8 14 4 0 -4
7 -2 15 5 8 7 15 9 15 4 0 -4 7 1 16 12 8 10 13 14 10 8 -3 -6 1 -11 8 -11 8
0 12 8 9 21 -4 18 -3 19 7 6 9 -12 10 -9 5 15 -4 17 -11 32 -16 33 -5 2 -6 9
-2 15 3 7 3 9 -2 5 -4 -4 -17 9 -28 30 -10 20 -26 44 -34 52 -8 8 -28 35 -45
58 -17 24 -40 48 -52 52 -17 7 -18 9 -3 9 9 1 17 6 17 13 0 6 -3 8 -7 5 -3 -4
-14 5 -24 21 -11 15 -24 35 -31 44 -10 13 -8 24 8 53 10 20 27 41 37 46 10 6
15 14 13 18 -10 16 113 132 176 166 35 18 66 34 70 34 3 1 40 -22 82 -50z
m251 -378 c-3 -5 -1 -12 5 -16 5 -3 10 -11 10 -18 0 -6 -6 -2 -14 8 -13 18
-13 35 0 35 3 0 3 -4 -1 -9z m-555 -31 c0 -5 -7 -7 -15 -4 -8 4 -15 8 -15 10
0 2 7 4 15 4 8 0 15 -4 15 -10z m13 -61 c-8 -28 -12 -23 -11 12 1 17 4 25 8
18 4 -6 5 -20 3 -30z m647 19 c0 -6 -6 -5 -15 2 -8 7 -15 14 -15 16 0 2 7 1
15 -2 8 -4 15 -11 15 -16z m-616 -50 c4 7 13 12 19 12 7 0 6 -4 -3 -10 -13 -8
-11 -11 8 -16 12 -4 22 -10 22 -15 0 -14 -17 -11 -34 7 -9 8 -16 11 -16 5 0
-6 9 -15 21 -21 11 -7 18 -14 15 -18 -12 -12 -35 -10 -47 4 -6 8 -14 12 -18
10 -3 -2 -7 8 -8 22 l-1 27 15 -28 c8 -16 17 -27 20 -24 2 3 0 14 -6 25 -6 12
-11 27 -10 34 0 7 4 4 8 -6 5 -14 10 -16 15 -8z m68 -86 c-12 -2 -20 -7 -18
-11 3 -4 -1 -8 -9 -8 -13 0 -13 3 1 18 10 11 22 15 32 11 14 -6 13 -7 -6 -10z
m-94 -61 c17 -2 15 -21 -3 -21 -8 0 -15 5 -15 11 0 6 -7 9 -15 6 -8 -4 -17 -2
-19 2 -3 5 5 7 17 6 12 -1 28 -3 35 -4z m-612 -314 c-2 -18 1 -38 6 -45 8 -9
7 -11 -5 -7 -8 4 -18 14 -21 23 -3 9 -9 24 -12 32 -4 8 1 6 10 -5 15 -19 15
-19 12 12 -2 18 0 30 5 27 5 -3 7 -19 5 -37z m-256 -37 c0 -55 22 -68 54 -34
23 25 28 27 60 17 20 -6 34 -7 30 -2 -3 5 -12 9 -20 9 -8 0 -14 5 -14 11 0 5
5 7 10 4 6 -3 11 -1 11 4 1 6 2 15 3 20 0 5 5 13 10 18 5 5 6 3 2 -4 -4 -8 -2
-13 6 -13 9 0 9 -3 -2 -10 -13 -8 -13 -11 -1 -22 12 -11 12 -10 6 2 -8 13 -6
13 8 1 9 -7 14 -17 11 -22 -3 -5 -2 -9 3 -9 33 -2 89 -14 93 -20 3 -4 14 -6
25 -4 11 2 25 -3 30 -10 11 -14 16 -16 41 -16 8 0 12 -5 9 -10 -4 -6 -3 -10 2
-9 25 4 63 -2 58 -10 -3 -5 -1 -13 5 -16 6 -4 10 -3 9 2 -4 24 3 25 14 3 9
-17 10 -27 3 -32 -7 -5 -6 -8 2 -8 9 0 11 -7 7 -20 -10 -32 4 -60 30 -60 28 0
39 31 19 57 -19 25 -17 38 2 18 14 -13 19 -14 25 -3 11 17 -1 -51 -13 -74 -8
-16 -4 -22 13 -20 12 2 17 -48 6 -55 -6 -3 -7 -1 -3 5 4 7 -5 23 -19 38 -21
21 -28 24 -41 13 -13 -10 -11 -16 13 -41 22 -23 34 -28 56 -24 31 6 37 -9 7
-19 -18 -6 -17 -10 18 -61 20 -29 44 -57 54 -60 10 -3 21 -16 24 -30 3 -13 10
-24 15 -24 5 0 9 -18 9 -39 0 -32 -4 -41 -22 -47 -13 -5 -26 -7 -30 -6 -5 1
-8 -3 -8 -9 0 -5 -6 -7 -12 -3 -8 4 -9 3 -5 -2 5 -5 16 -9 25 -9 12 0 17 -8
17 -27 -1 -14 3 -24 7 -22 4 3 8 -2 8 -10 0 -9 -4 -16 -8 -16 -5 0 -9 -7 -9
-15 0 -8 2 -13 5 -10 5 5 32 -20 32 -30 0 -3 -6 -3 -12 1 -7 4 -10 4 -6 -1 4
-4 2 -15 -5 -23 -9 -12 -9 -14 0 -9 14 9 37 -28 28 -43 -3 -6 -3 -10 2 -10 4
0 13 -12 20 -26 10 -22 9 -26 -9 -33 -13 -5 -17 -10 -11 -14 17 -10 43 3 43
22 0 13 2 14 9 2 11 -17 8 -241 -3 -260 -4 -6 -5 -18 -2 -26 3 -8 1 -17 -5
-21 -6 -3 -8 -13 -5 -21 3 -8 2 -12 -3 -9 -11 7 -45 -80 -36 -94 3 -5 28 -8
55 -6 27 1 47 -1 44 -6 -8 -13 20 -9 35 5 11 10 12 9 6 -3 -8 -13 -7 -13 8 -1
9 7 17 10 17 5 1 -5 9 2 20 15 11 12 17 28 13 34 -3 6 -1 7 5 3 7 -4 12 -3 12
2 0 5 6 9 13 10 44 6 55 10 76 31 13 13 29 20 38 17 10 -4 13 -2 10 8 -3 8 3
25 13 38 11 13 19 20 20 15 0 -4 30 8 68 26 37 19 93 44 125 57 55 23 66 33
48 44 -10 7 -2 54 10 62 5 3 6 -2 3 -10 -6 -15 5 -20 34 -17 6 1 12 -7 12 -18
0 -18 5 -19 68 -13 37 3 79 6 95 6 15 1 27 5 27 10 0 5 3 7 6 3 3 -3 17 -1 31
4 21 8 24 7 19 -6 -11 -29 11 -6 24 25 7 16 16 27 20 25 5 -3 12 0 16 6 4 8 3
9 -4 5 -7 -4 -12 -2 -12 4 0 6 -6 8 -12 4 -10 -6 -10 -4 0 7 13 14 16 30 5 28
-27 -4 -33 1 -21 21 7 11 18 20 25 20 7 0 13 1 13 3 0 1 9 26 19 55 16 44 33
115 35 146 1 5 7 11 15 14 9 3 11 0 7 -9 -4 -8 -1 -6 7 3 8 10 16 16 19 13 2
-3 5 1 5 9 0 21 72 123 114 160 42 38 52 59 36 75 -8 8 -8 11 0 11 6 0 13 -5
15 -11 2 -6 35 3 83 24 123 54 308 97 321 75 3 -5 10 -5 16 -2 21 13 122 4
134 -11 6 -8 21 -15 33 -15 12 0 20 -3 18 -7 -3 -5 20 -8 51 -8 62 0 105 -12
99 -29 -4 -12 22 -35 41 -36 6 0 12 12 12 26 l0 25 30 -18 c17 -9 30 -21 30
-25 0 -4 6 -8 14 -8 7 0 19 -7 26 -15 7 -8 16 -13 20 -10 4 2 17 -7 30 -20 13
-13 27 -22 33 -18 6 3 7 1 3 -5 -3 -6 -1 -14 4 -17 6 -4 10 -17 9 -28 -2 -36
0 -40 17 -27 13 11 16 10 21 -8 3 -12 9 -19 14 -16 5 3 9 -2 9 -11 0 -9 4 -14
9 -11 5 3 8 -2 7 -11 0 -10 4 -18 11 -18 6 0 15 -4 20 -9 5 -5 3 -6 -4 -2 -17
10 -16 -3 3 -34 8 -14 13 -17 10 -7 -4 11 -2 16 5 12 6 -4 8 -13 5 -21 -3 -8
-1 -26 5 -41 7 -20 6 -30 -4 -41 -12 -12 -11 -24 9 -88 13 -41 24 -81 24 -89
0 -8 7 -15 15 -15 8 0 15 5 15 11 0 5 5 7 12 3 7 -5 5 -11 -7 -21 -11 -7 -14
-13 -8 -13 15 0 26 -79 13 -95 -7 -8 -7 -29 0 -63 31 -163 36 -570 11 -802 -6
-56 -5 -77 4 -84 13 -10 1 -64 -29 -122 -12 -22 -13 -39 -7 -62 5 -18 7 -32 3
-32 -3 0 -1 -5 6 -12 9 -9 3 -20 -28 -47 -21 -20 -42 -48 -46 -63 -5 -24 -3
-27 16 -23 21 4 21 4 5 -22 -9 -14 -12 -23 -7 -19 6 3 -3 -18 -19 -46 -31 -57
-36 -73 -17 -62 7 4 8 3 4 -5 -4 -6 -11 -9 -16 -6 -10 6 -24 -31 -15 -44 3 -5
0 -13 -6 -17 -8 -5 -9 -3 -4 6 6 9 4 11 -4 5 -7 -4 -11 -18 -8 -32 4 -23 4
-23 -16 -6 l-21 18 19 -30 c11 -18 13 -26 4 -19 -19 15 -61 8 -77 -14 -9 -11
-11 -33 -8 -62 3 -26 2 -39 -3 -31 -6 9 -11 10 -15 2 -4 -6 -5 -15 -2 -20 7
-10 -19 -34 -39 -37 -8 -1 -16 5 -19 13 -9 23 -96 -52 -96 -83 0 -15 -6 -24
-15 -24 -8 0 -15 5 -15 10 0 6 -5 10 -11 10 -5 0 -8 -4 -4 -9 5 -9 -32 -81
-42 -81 -2 0 -1 6 3 13 5 8 2 7 -10 -2 -15 -13 -18 -12 -23 7 -6 26 -6 26 -41
8 -108 -55 -430 -79 -458 -34 -4 6 -7 66 -7 134 0 68 -4 124 -8 124 -5 0 -9
-58 -9 -130 0 -78 -4 -130 -10 -130 -29 0 -132 62 -179 107 -51 49 -53 54 -37
66 16 12 16 14 2 26 -8 7 -20 10 -25 7 -25 -16 -86 174 -96 294 -15 199 -14
260 3 260 14 0 14 1 -1 13 -14 10 -17 42 -21 214 -2 111 -9 210 -14 220 -5 10
-12 34 -16 53 -8 47 -43 103 -60 97 -8 -3 -22 4 -33 16 l-18 22 25 -20 25 -20
-18 22 c-17 19 -54 22 -42 4 2 -4 -2 -8 -9 -8 -8 0 -11 8 -8 19 4 18 -9 23
-51 20 -10 -1 -15 3 -12 8 3 6 2 10 -3 10 -17 0 -21 -13 -10 -34 9 -18 9 -19
-3 -10 -8 6 -32 11 -54 10 -22 -1 -43 2 -46 7 -7 10 -69 -12 -69 -25 0 -6 -7
-7 -16 -4 -10 4 -13 2 -8 -6 5 -7 2 -9 -8 -5 -19 7 -58 -19 -58 -38 0 -8 -5
-17 -12 -21 -7 -4 -8 -3 -4 4 4 7 1 12 -8 12 -15 0 -42 -38 -38 -52 3 -11 -6
-10 -29 3 -24 13 -59 3 -59 -17 0 -8 -4 -12 -10 -9 -17 11 1 -27 49 -100 57
-87 60 -95 50 -123 -6 -15 -5 -21 1 -17 6 3 10 1 10 -4 0 -6 -5 -11 -11 -11
-5 0 -7 -4 -4 -10 12 -20 33 -11 27 13 -9 36 20 6 47 -49 20 -39 22 -50 12
-67 -7 -11 -8 -16 -2 -12 15 8 14 -8 -1 -23 -8 -8 -5 -10 13 -7 20 4 28 -3 47
-39 13 -24 24 -50 26 -58 1 -8 9 -26 17 -39 24 -37 28 -66 12 -88 -12 -18 -12
-20 1 -15 19 7 39 -31 32 -62 -4 -13 -14 -24 -23 -24 -13 0 -9 -9 16 -34 22
-22 29 -36 21 -41 -8 -5 -7 -11 3 -23 9 -10 14 -32 12 -51 -2 -22 3 -39 16
-52 10 -10 14 -21 9 -24 -13 -8 -11 -135 3 -159 6 -12 13 -28 15 -36 5 -22 8
-140 3 -135 -8 9 -31 -18 -31 -36 0 -30 -20 -22 -26 11 -7 31 -27 40 -41 17
-10 -15 -11 -120 0 -128 4 -3 9 -15 12 -27 2 -15 0 -19 -11 -15 -8 3 -21 2
-29 -1 -12 -4 -13 -10 -6 -25 19 -35 -65 -142 -202 -258 -14 -12 -28 -19 -31
-16 -3 4 -6 2 -6 -4 0 -15 -48 -34 -55 -22 -9 14 -25 1 -25 -20 0 -11 -10 -22
-22 -26 -13 -4 -26 -8 -30 -10 -5 -1 -13 -3 -19 -4 -5 0 -7 -5 -4 -11 3 -6 -1
-7 -9 -4 -9 4 -18 -1 -22 -10 -3 -9 -10 -14 -14 -11 -4 3 -11 -2 -14 -11 -5
-13 -9 -14 -21 -4 -8 7 -20 8 -27 4 -7 -5 -22 -10 -32 -11 -11 -2 -25 -8 -33
-14 -9 -9 -13 -8 -13 0 0 7 -5 9 -12 4 -7 -4 -21 -8 -30 -9 -10 -1 -22 -2 -28
-3 -5 0 -10 -9 -10 -18 0 -12 -3 -14 -8 -6 -5 8 -13 9 -22 3 -12 -8 -20 1 -37
38 -18 38 -22 42 -23 22 -1 -39 -11 -70 -21 -64 -5 3 -9 -1 -9 -8 0 -7 -8 3
-18 22 -12 25 -24 35 -42 36 -31 1 -50 -13 -50 -37 0 -15 -7 -18 -40 -16 -22
1 -42 8 -45 14 -2 7 0 13 4 13 5 0 8 8 7 17 -4 27 -56 23 -83 -6 -18 -19 -23
-21 -23 -7 0 9 -3 15 -7 15 -5 -1 -10 0 -13 1 -21 8 -95 23 -117 23 -13 1 -23
4 -23 8 0 3 -17 4 -37 2 -25 -3 -41 1 -48 10 -12 16 -101 58 -109 50 -2 -3
-10 4 -17 15 -7 11 -19 18 -26 15 -7 -3 -13 0 -13 7 0 6 -5 8 -10 5 -6 -4 -24
5 -41 19 -17 15 -35 24 -40 20 -5 -3 -9 2 -9 11 0 9 -5 13 -10 10 -6 -3 -10
-1 -10 6 0 7 -3 9 -7 6 -3 -4 -15 1 -26 10 -15 13 -18 14 -13 3 5 -8 -2 -4
-15 10 -13 14 -40 37 -59 50 -19 13 -42 31 -51 39 -9 9 -31 27 -49 41 -19 14
-46 35 -61 48 -15 12 -34 20 -42 16 -23 -8 -28 31 -6 45 11 6 19 18 19 26 0
17 -35 21 -45 5 -9 -14 -42 5 -50 29 -4 12 -12 17 -24 14 -14 -3 -21 2 -26 19
-4 12 -12 26 -18 29 -5 4 -15 23 -22 42 -10 30 -9 36 7 46 28 18 22 33 -10 26
-20 -4 -33 -1 -42 10 -7 8 -9 15 -5 15 4 0 -3 9 -16 20 -13 10 -18 19 -11 20
24 0 12 28 -17 38 -20 7 -29 16 -27 29 2 10 -13 35 -35 57 -22 21 -36 42 -33
47 5 8 -17 14 -38 10 -5 0 -9 9 -9 21 -1 13 -2 35 -3 50 -1 15 -11 35 -21 44
-11 8 -13 12 -5 8 11 -5 12 -4 4 5 -12 13 -47 4 -38 -10 3 -5 3 -9 0 -9 -9 0
-36 70 -36 92 0 14 5 18 19 13 14 -4 18 -1 17 16 -1 23 -13 33 -57 48 -30 11
-68 91 -43 91 8 0 14 5 14 11 0 6 -7 9 -15 6 -19 -8 -30 10 -16 27 8 9 8 22 2
39 -5 14 -7 28 -3 32 4 4 -3 4 -15 1 -28 -9 -36 6 -18 30 20 27 19 37 -12 70
-29 31 -37 51 -22 60 5 3 9 19 9 36 0 21 -6 31 -20 35 -24 6 -27 21 -4 19 28
-2 26 19 -6 52 -34 36 -39 76 -12 91 9 6 12 11 5 11 -6 0 -10 7 -9 16 2 15
-14 113 -27 170 -4 15 3 29 20 45 26 25 103 124 103 134 0 13 -37 2 -81 -25
l-49 -30 0 30 c0 27 4 30 66 50 82 25 103 26 99 3 -1 -10 1 -22 5 -28 4 -5 13
-41 20 -80 7 -38 20 -75 27 -82 8 -6 10 -14 5 -17 -12 -7 5 -84 23 -106 7 -8
12 -27 10 -43 -2 -17 1 -25 7 -20 7 4 9 -2 6 -15 -4 -12 -2 -22 2 -22 5 0 7
-10 5 -21 -3 -12 -1 -18 3 -15 4 4 5 9 2 10 -3 2 1 10 8 19 9 10 10 17 2 22
-5 3 -10 11 -10 18 0 6 6 2 14 -8 8 -11 12 -23 10 -27 -3 -5 0 -8 7 -8 7 0 9
-3 6 -6 -3 -4 -2 -15 3 -25 8 -14 5 -21 -12 -33 -18 -13 -19 -16 -5 -16 9 0
17 5 17 10 0 6 4 10 9 10 4 0 8 -33 9 -72 0 -133 14 -248 28 -248 8 0 14 9 14
20 0 32 15 23 29 -16 7 -21 26 -49 41 -64 17 -17 29 -41 31 -61 5 -52 51 -133
77 -137 12 -2 20 -8 17 -13 -4 -5 -1 -9 4 -9 6 0 11 -7 11 -16 0 -8 -5 -12
-10 -9 -6 3 -10 3 -10 0 0 -9 33 -40 39 -38 3 2 6 -4 6 -11 0 -8 11 -26 24
-40 14 -14 21 -26 17 -26 -4 0 -2 -9 4 -20 8 -15 8 -20 -1 -18 -6 2 -15 -8
-20 -22 -8 -23 -8 -24 5 -6 14 17 15 16 24 -15 6 -21 5 -41 0 -53 -7 -13 -7
-16 1 -12 11 7 14 -3 12 -39 -1 -14 3 -11 13 10 8 17 10 34 5 39 -5 6 -9 15
-9 20 0 6 7 0 16 -12 9 -13 14 -34 12 -47 -11 -53 10 -42 22 12 7 32 15 52 17
45 3 -6 9 -10 14 -6 5 3 9 -1 9 -9 0 -8 11 -22 24 -33 14 -10 23 -21 20 -25
-5 -9 44 -64 56 -64 5 0 23 -15 39 -34 17 -19 31 -32 31 -28 0 4 8 -1 18 -10
10 -10 29 -25 42 -33 12 -8 35 -25 50 -37 15 -12 40 -24 56 -27 16 -3 37 -15
47 -27 9 -12 17 -16 17 -10 0 6 9 2 20 -9 12 -12 25 -18 30 -15 6 4 10 1 10
-5 0 -6 4 -9 9 -6 5 3 11 -1 15 -9 7 -20 36 -19 36 0 0 18 16 20 26 3 5 -7 3
-8 -6 -3 -7 4 -2 -6 10 -23 25 -34 87 -64 76 -37 -6 17 19 21 29 5 3 -5 1 -10
-6 -10 -18 0 -5 -10 20 -15 11 -2 26 -7 31 -10 14 -9 12 5 -5 39 -18 34 -13
45 10 22 9 -9 13 -16 8 -17 -4 -1 3 -4 16 -8 33 -9 39 -31 9 -32 -19 -1 -18
-3 7 -8 37 -9 38 -8 37 29 -1 36 1 36 41 8 21 -15 42 -21 66 -19 68 6 96 9 96
11 0 1 16 3 35 5 57 6 121 27 127 41 3 8 9 11 14 8 15 -9 98 44 117 74 9 15
24 28 32 30 22 5 41 23 34 33 -3 5 0 9 6 9 6 0 9 4 6 9 -3 5 2 8 12 7 9 0 17
6 17 14 0 22 36 60 57 60 10 0 18 5 18 11 0 5 6 7 13 3 6 -4 9 -4 5 1 -4 4 6
32 22 61 19 35 27 60 23 76 -6 20 -4 21 9 10 13 -11 18 -11 24 0 4 7 4 10 -1
6 -4 -4 -14 -3 -21 3 -10 8 -10 18 -2 42 6 18 16 35 22 39 11 7 13 67 3 133
-4 23 -1 45 6 53 14 17 9 84 -6 94 -7 4 -19 6 -27 3 -8 -3 -4 3 9 13 17 14 20
21 11 27 -8 5 -10 21 -6 51 3 24 1 46 -4 49 -5 3 -7 12 -3 20 3 10 -2 15 -16
15 -12 0 -21 4 -21 9 0 5 -7 17 -16 25 -14 15 -14 16 5 16 14 0 19 -5 15 -15
-5 -11 -2 -13 11 -9 12 5 15 14 10 33 -3 14 -6 32 -7 39 -1 6 -7 12 -14 12
-22 0 -25 18 -7 36 20 20 20 23 1 35 -8 5 -15 2 -19 -9 -4 -12 -15 2 -38 51
-17 37 -29 73 -25 78 4 8 9 7 15 -2 6 -10 8 -8 7 7 -2 14 -7 20 -18 17 -10 -3
-21 5 -28 22 -7 15 -8 24 -2 20 16 -10 11 10 -7 32 -10 11 -28 23 -40 27 -28
9 -63 57 -63 85 0 14 -6 21 -20 21 -11 0 -20 6 -20 14 0 12 -46 50 -62 51 -3
0 -10 4 -15 9 -5 5 -2 6 7 2 8 -4 4 1 -10 12 -14 12 -21 24 -17 28 4 4 2 13
-4 20 -12 15 -51 -20 -86 -76 -12 -19 -25 -35 -30 -35 -4 0 -7 -4 -5 -8 1 -4
-11 -13 -28 -18 -16 -6 -28 -16 -27 -22 1 -7 -6 -11 -15 -9 -12 2 -18 -4 -18
-15 -1 -14 -8 -10 -32 17 -17 20 -25 25 -19 13 16 -32 15 -48 -4 -33 -18 15
-21 -1 -5 -31 6 -11 7 -18 3 -17 -17 4 -53 -14 -47 -24 4 -6 1 -9 -7 -6 -8 3
-15 14 -17 26 -4 23 -10 26 -35 16 -9 -3 -12 -14 -9 -31 3 -18 1 -24 -7 -19
-13 9 -15 -6 -1 -20 5 -5 6 -15 0 -24 -8 -12 -10 -12 -15 2 -4 10 -13 14 -22
11 -10 -4 -14 -2 -10 4 4 7 -5 10 -26 9 -17 -2 -31 -7 -30 -12 1 -5 -8 -11
-20 -11 -12 -1 -27 -9 -33 -17 -10 -14 -13 -14 -28 2 -23 26 -21 56 3 49 33
-8 33 20 0 32 -16 5 -29 7 -29 4 0 -3 -7 0 -15 7 -8 7 -12 16 -9 22 3 5 1 14
-4 21 -14 17 -21 68 -11 87 26 51 34 171 12 163 -7 -3 -13 -9 -13 -13 0 -4
-10 -7 -22 -6 -32 1 -29 27 5 46 26 14 29 14 41 -2 10 -14 15 -15 26 -5 12 10
12 9 1 -5 -13 -18 -9 -48 7 -48 17 0 62 49 61 67 0 14 -2 15 -6 3 -3 -8 -16
-26 -29 -38 l-23 -24 9 31 c7 27 6 31 -11 31 -30 0 -22 13 24 38 45 24 62 28
52 12 -3 -5 3 -10 14 -10 22 0 29 16 9 22 -6 2 26 26 71 52 45 27 109 71 142
99 62 53 151 173 163 221 5 20 12 26 28 24 14 -2 22 3 24 15 2 15 0 16 -13 5
-15 -12 -15 -11 -4 11 7 12 10 32 8 43 -3 11 3 44 12 73 11 32 14 52 7 48 -7
-4 -7 -1 1 7 6 7 9 19 6 27 -3 8 -1 18 4 22 7 4 5 11 -5 21 -14 13 -15 12 -9
-3 3 -9 2 -17 -3 -17 -6 0 -10 -9 -10 -20 0 -13 -5 -18 -15 -14 -20 8 -19 28
1 49 9 8 13 22 10 30 -3 9 5 21 22 31 15 8 18 12 7 8 -52 -18 -60 -16 -74 16
-7 17 -31 51 -52 76 -24 28 -36 51 -33 62 5 15 4 15 -9 -1 -8 -10 -18 -14 -21
-9 -3 5 -19 12 -36 15 -23 5 -28 10 -23 24 6 15 3 14 -23 -3 -45 -32 -64 -36
-64 -16 0 22 -42 42 -64 30 -11 -6 -28 -6 -45 0 -33 12 -54 2 -49 -24 4 -26
-29 -31 -37 -5 -7 23 -39 28 -51 9 -4 -7 -7 -31 -5 -55 2 -36 0 -42 -13 -37
-9 3 -13 11 -9 17 3 5 7 27 8 49 l2 39 -50 -4 c-41 -4 -52 -8 -59 -27 -7 -19
-14 -22 -42 -17 -22 4 -43 -1 -63 -12 -22 -14 -42 -17 -86 -13 -47 4 -57 2
-57 -11 0 -10 -6 -14 -14 -11 -8 3 -17 0 -21 -6 -5 -8 -11 -7 -23 2 -13 11
-15 10 -9 -5 5 -14 3 -16 -11 -9 -24 12 -47 8 -44 -6 1 -7 -3 -12 -8 -12 -6 0
-10 8 -8 17 2 10 -3 18 -9 19 -26 3 -28 5 -13 14 13 8 12 10 -2 10 -10 0 -18
-7 -18 -15 0 -10 -9 -6 -27 11 -16 15 -27 34 -25 45 2 10 -2 19 -7 19 -6 0
-11 7 -11 16 0 11 -5 14 -16 10 -22 -8 -57 12 -50 30 3 9 1 12 -4 9 -6 -3 -10
3 -10 14 0 12 -4 21 -8 21 -15 0 -7 38 12 59 14 15 15 23 7 33 -40 47 -54 75
-57 109 -2 21 0 39 6 39 5 0 18 9 29 21 16 18 22 19 42 8 59 -31 131 3 128 61
-2 39 2 47 10 20 9 -32 35 -33 39 -1 3 19 0 23 -15 17 -16 -5 -16 -5 1 9 18
14 39 19 59 16 4 0 7 3 7 7 0 5 6 9 13 9 40 3 67 8 67 13 0 4 15 6 33 5 17 -1
37 0 42 4 6 3 55 7 110 8 103 2 127 -7 99 -35 -21 -21 -13 -47 14 -46 12 1 22
-3 22 -8 0 -5 5 -6 10 -3 15 9 12 36 -7 58 -17 18 -17 19 0 32 32 23 57 7 57
-35z m700 -97 c0 -9 7 -25 17 -35 9 -10 13 -21 9 -26 -4 -4 -16 4 -27 17 -20
25 -26 61 -9 61 6 0 10 -8 10 -17z m-170 -23 c0 -11 -2 -20 -4 -20 -2 0 -6 9
-9 20 -3 11 -1 20 4 20 5 0 9 -9 9 -20z m150 -77 c0 -3 -7 -2 -16 1 -8 3 -12
2 -9 -3 3 -5 1 -12 -5 -16 -11 -7 -14 17 -4 28 6 6 34 -2 34 -10z m-23 -21
c13 10 17 10 20 0 3 -6 8 -10 12 -8 4 3 8 -1 8 -9 0 -8 -4 -12 -8 -9 -4 2 -9
1 -12 -3 -2 -5 -2 -3 -1 4 2 7 -1 15 -6 18 -6 4 -10 -6 -11 -22 0 -27 -1 -27
-9 -5 -5 12 -11 22 -14 22 -2 0 -2 -10 0 -22 4 -21 4 -21 -5 -3 -4 11 -7 23
-4 28 2 4 -1 7 -7 7 -6 0 -8 5 -4 11 5 8 10 6 16 -5 8 -14 12 -15 25 -4z m7
-88 c3 -8 2 -12 -4 -9 -6 3 -10 10 -10 16 0 14 7 11 14 -7z m1156 -173 c0 -5
-7 -12 -16 -15 -14 -5 -15 -4 -4 9 14 17 20 19 20 6z m-1983 -88 c-4 -3 -2
-12 4 -20 6 -7 9 -13 5 -13 -3 0 -9 -1 -13 -2 -3 -2 -8 7 -9 20 -2 12 1 22 8
22 6 0 8 -3 5 -7z m-312 -43 c3 -5 1 -10 -4 -10 -6 0 -11 5 -11 10 0 6 2 10 4
10 3 0 8 -4 11 -10z m1175 -29 c8 -16 7 -19 -8 -17 -9 2 -18 10 -20 19 -5 23
15 21 28 -2z m14 -49 c2 -4 7 -24 11 -45 8 -39 -8 -54 -18 -16 -3 12 -10 18
-15 15 -7 -4 -9 36 -3 52 2 5 20 1 25 -6z m-198 -19 c15 -16 15 -17 -2 -24
-11 -3 -21 -1 -23 5 -2 6 -8 17 -14 24 -15 19 18 15 39 -5z m189 -83 c3 -5 2
-10 -4 -10 -5 0 -13 5 -16 10 -3 6 -2 10 4 10 5 0 13 -4 16 -10z m32 -47 c-3
-3 -11 -2 -17 2 -9 6 -9 10 1 16 14 8 27 -7 16 -18z m533 -203 c0 -5 -2 -10
-4 -10 -3 0 -8 5 -11 10 -3 6 -1 10 4 10 6 0 11 -4 11 -10z m1927 -82 c-3 -8
-6 -5 -6 6 -1 11 2 17 5 13 3 -3 4 -12 1 -19z m-2947 -672 c0 -3 -4 -8 -10
-11 -5 -3 -10 -1 -10 4 0 6 5 11 10 11 6 0 10 -2 10 -4z m-84 -118 c4 -7 3 -8
-4 -4 -7 4 -12 3 -12 -2 0 -6 -7 -12 -15 -16 -19 -7 -15 17 5 26 8 4 16 7 17
7 1 1 5 -4 9 -11z m804 -238 c0 -5 -2 -10 -4 -10 -3 0 -8 5 -11 10 -3 6 -1 10
4 10 6 0 11 -4 11 -10z m-1066 -968 c3 -5 -1 -9 -9 -9 -8 0 -12 4 -9 9 3 4 7
8 9 8 2 0 6 -4 9 -8z"/>
<path d="M2866 4445 c2 -13 9 -36 14 -50 15 -39 13 -45 -15 -45 -14 0 -25 5
-25 11 0 5 -4 8 -9 5 -15 -10 12 -56 33 -56 17 0 17 -2 -5 -22 -13 -13 -35
-23 -49 -23 -18 0 -26 -6 -28 -23 -5 -35 16 -54 51 -46 20 4 33 2 39 -7 7 -11
9 -11 7 1 -3 29 1 41 11 35 6 -3 10 -1 10 5 0 6 5 8 10 5 6 -3 10 -2 10 4 0 5
8 8 18 6 11 -2 34 10 53 26 19 16 38 29 42 29 5 0 5 5 2 10 -8 13 1 13 26 0
53 -29 26 88 -28 121 -18 11 -30 26 -27 31 4 7 2 8 -4 4 -6 -4 -9 -13 -5 -21
3 -8 1 -15 -5 -15 -6 0 -12 4 -14 8 -1 5 -15 12 -30 16 -21 5 -28 3 -28 -9 0
-8 -4 -15 -10 -15 -5 0 -10 4 -10 10 0 5 -9 14 -19 20 -17 9 -19 7 -15 -15z"/>
<path d="M2081 4344 c0 -11 3 -14 6 -6 3 7 2 16 -1 19 -3 4 -6 -2 -5 -13z"/>
<path d="M2440 4256 c0 -9 7 -16 16 -16 9 0 14 5 12 12 -6 18 -28 21 -28 4z"/>
<path d="M2562 4216 c-22 -16 -29 -26 -22 -31 16 -10 57 13 63 36 7 24 0 23
-41 -5z"/>
<path d="M2400 4209 c0 -24 23 -21 28 4 2 10 -3 17 -12 17 -10 0 -16 -9 -16
-21z"/>
<path d="M2280 3948 c0 -9 5 -20 10 -23 13 -8 13 5 0 25 -8 13 -10 13 -10 -2z"/>
<path d="M2195 3881 c3 -14 10 -29 16 -35 9 -8 10 -8 5 2 -4 6 -2 12 3 12 6 0
11 5 11 12 0 6 -3 8 -7 5 -3 -4 -12 1 -19 11 -12 15 -13 15 -9 -7z"/>
<path d="M1146 3881 c-4 -5 3 -7 14 -4 23 6 26 13 6 13 -8 0 -17 -4 -20 -9z"/>
<path d="M3911 3657 c2 -1 11 -8 21 -15 12 -10 18 -10 24 -1 4 7 3 9 -4 5 -6
-3 -13 -2 -17 4 -3 5 -11 10 -17 10 -6 0 -9 -1 -7 -3z"/>
<path d="M1975 3476 c21 -15 35 -12 35 7 0 8 -3 8 -9 -2 -6 -9 -11 -10 -15 -2
-4 6 -12 11 -19 11 -6 0 -2 -6 8 -14z"/>
<path d="M2203 3410 c1 -11 5 -20 9 -20 3 0 6 9 5 20 -1 11 -5 20 -9 20 -3 0
-6 -9 -5 -20z"/>
<path d="M2231 3303 c6 -7 9 -20 5 -28 -3 -8 -1 -15 4 -15 6 0 10 13 10 28 0
19 -5 29 -15 29 -11 0 -12 -4 -4 -14z"/>
<path d="M2191 3244 c0 -11 3 -14 6 -6 3 7 2 16 -1 19 -3 4 -6 -2 -5 -13z"/>
<path d="M2251 3214 c0 -11 3 -14 6 -6 3 7 2 16 -1 19 -3 4 -6 -2 -5 -13z"/>
<path d="M3870 3183 c0 -7 -6 -13 -12 -13 -7 0 -24 -3 -37 -7 -18 -5 -22 -3
-16 7 5 8 3 11 -6 8 -8 -3 -22 -1 -32 4 -12 6 -23 6 -31 -1 -7 -6 -17 -7 -21
-3 -5 4 -5 1 -1 -6 5 -8 0 -21 -14 -34 -12 -11 -19 -26 -16 -34 3 -8 1 -14 -4
-14 -6 0 -10 5 -10 12 0 6 -9 3 -20 -7 -20 -18 -20 -17 -20 9 0 24 -2 26 -15
12 -8 -8 -15 -19 -15 -25 0 -6 -6 -8 -14 -5 -12 5 -28 -10 -64 -62 -7 -11 -10
-12 -7 -4 4 8 -4 3 -17 -11 -72 -81 -75 -96 -36 -144 43 -52 76 -119 98 -203
18 -66 19 -97 14 -370 -3 -163 -10 -301 -14 -306 -5 -5 -4 -20 1 -34 6 -14 9
-48 9 -76 -2 -63 26 -220 45 -260 17 -33 19 -50 6 -42 -5 3 -11 -1 -15 -9 -3
-9 0 -15 8 -15 7 0 21 -9 31 -20 15 -16 16 -22 5 -35 -7 -9 -10 -19 -6 -23 4
-4 14 2 22 12 12 17 20 10 12 -10 -2 -3 5 -10 15 -15 9 -6 15 -14 12 -19 -3
-5 -1 -11 4 -14 5 -4 13 -1 17 5 5 8 3 9 -6 4 -9 -5 -11 -4 -6 4 4 6 12 9 17
5 5 -3 7 -9 4 -14 -3 -4 2 -11 11 -14 22 -8 26 -8 19 4 -10 16 1 12 15 -6 8
-8 9 -14 4 -12 -10 3 -14 -4 -14 -24 0 -7 8 -1 18 15 19 28 32 27 32 -3 0 -9
7 -17 15 -17 8 0 15 6 15 12 0 16 24 36 47 39 10 2 40 -8 66 -23 l48 -25 25
32 c14 18 30 30 35 27 5 -4 9 -1 9 5 0 6 11 8 24 6 18 -3 23 -1 19 10 -3 9 1
14 12 14 10 0 14 5 9 13 -4 6 -4 9 0 5 10 -9 66 11 66 24 0 5 5 6 10 3 6 -3
10 -1 10 6 0 7 3 10 6 6 6 -6 35 18 108 90 50 49 160 244 144 254 -6 4 -17 5
-24 2 -16 -6 -10 35 7 51 9 8 10 7 4 -3 -5 -9 -4 -12 3 -7 6 4 9 13 6 21 -4 8
6 20 24 29 27 14 31 23 46 106 49 264 21 574 -67 750 -31 63 -33 65 -68 64
-38 -1 -46 13 -22 37 8 8 8 20 3 34 -5 13 -6 26 -2 31 4 4 3 5 -3 2 -5 -3 -18
3 -27 14 -10 10 -15 18 -11 18 4 0 -3 7 -16 17 -20 13 -27 14 -44 4 -17 -11
-22 -10 -29 3 -5 9 -13 14 -18 11 -4 -3 -6 4 -3 15 3 11 10 17 16 13 5 -3 8
-2 4 3 -6 11 -58 10 -77 -1 -9 -6 -7 -11 11 -21 13 -7 20 -13 15 -14 -5 0 -3
-8 5 -17 7 -10 -1 -5 -17 12 -16 16 -29 34 -29 40 -1 5 -6 9 -13 8 -7 -2 -9 4
-5 14 5 12 3 14 -7 8 -10 -6 -12 -3 -8 11 4 16 -1 19 -33 20 -22 0 -35 -4 -32
-10 4 -5 1 -6 -6 -2 -9 6 -9 12 3 25 14 15 14 18 1 18 -8 0 -12 -4 -9 -9 3 -4
-2 -8 -10 -8 -26 0 -30 -1 -44 -13 -7 -6 -12 -6 -11 -1 4 23 -2 26 -17 8 -8
-10 -13 -14 -10 -7 4 6 2 14 -4 18 -5 3 -10 0 -10 -7 0 -10 -2 -10 -9 1 -7 11
-10 10 -14 -5 -3 -14 -6 -11 -12 13 -6 26 -12 32 -31 31 -13 -1 -24 -8 -24
-15z m175 -51 c-3 -3 -11 0 -18 7 -9 10 -8 11 6 5 10 -3 15 -9 12 -12z"/>
<path d="M4177 3189 c7 -7 15 -10 18 -7 3 3 -2 9 -12 12 -14 6 -15 5 -6 -5z"/>
<path d="M4016 3178 c3 -5 10 -6 15 -3 13 9 11 12 -6 12 -8 0 -12 -4 -9 -9z"/>
<path d="M2233 3131 c0 -11 5 -18 9 -15 4 3 5 11 1 19 -7 21 -12 19 -10 -4z"/>
<path d="M4204 3128 c-4 -7 -4 -10 1 -6 4 4 13 1 19 -8 10 -13 12 -13 13 5 2
23 -21 29 -33 9z"/>
<path d="M4175 3111 c-3 -5 -2 -12 3 -15 5 -3 9 1 9 9 0 17 -3 19 -12 6z"/>
<path d="M2204 3078 l-19 -23 23 19 c21 18 27 26 19 26 -2 0 -12 -10 -23 -22z"/>
<path d="M2378 2606 c-17 -13 -14 -26 5 -26 6 0 7 3 4 7 -4 3 -2 12 4 20 14
16 9 16 -13 -1z"/>
<path d="M1690 2530 c0 -5 5 -10 11 -10 5 0 7 5 4 10 -3 6 -8 10 -11 10 -2 0
-4 -4 -4 -10z"/>
<path d="M2019 2263 c-13 -16 -12 -17 4 -4 9 7 17 15 17 17 0 8 -8 3 -21 -13z"/>
<path d="M2402 2265 c-16 -19 -11 -19 24 0 23 12 25 15 9 15 -11 -1 -26 -7
-33 -15z"/>
<path d="M2391 2230 c0 -8 8 -26 19 -40 11 -14 20 -20 20 -13 0 6 -5 15 -11
18 -6 4 -14 17 -19 29 -5 12 -9 15 -9 6z"/>
<path d="M1741 2194 c0 -11 3 -14 6 -6 3 7 2 16 -1 19 -3 4 -6 -2 -5 -13z"/>
<path d="M1769 2193 c10 -4 8 -9 -10 -19 -15 -9 -18 -13 -8 -14 16 0 39 19 39
32 0 4 -8 8 -17 7 -13 0 -14 -2 -4 -6z"/>
<path d="M604 2005 c-7 -18 4 -37 17 -29 6 4 6 10 0 18 -6 7 -8 16 -4 19 3 4
3 7 -1 7 -3 0 -9 -7 -12 -15z"/>
<path d="M3415 1770 c-3 -5 -1 -10 6 -10 7 0 9 -10 7 -25 -3 -13 -1 -22 3 -19
12 7 11 51 0 59 -5 3 -12 1 -16 -5z"/>
<path d="M3533 1655 c-11 -18 -19 -36 -16 -39 10 -10 52 44 47 59 -8 19 -5 20
-31 -20z"/>
<path d="M710 1625 c0 -9 6 -12 15 -9 8 4 15 10 15 15 0 5 -7 9 -15 9 -8 0
-15 -7 -15 -15z"/>
<path d="M3457 1579 c8 -28 18 -31 38 -9 10 11 16 20 14 21 -50 8 -57 7 -52
-12z"/>
<path d="M3508 1503 c14 -3 20 -9 15 -16 -4 -7 1 -6 10 2 22 17 22 17 -15 18
-21 0 -24 -1 -10 -4z"/>
<path d="M730 1479 c0 -12 5 -19 12 -17 18 6 20 25 3 31 -10 5 -15 0 -15 -14z"/>
<path d="M3405 1489 c-4 -5 -1 -8 7 -7 7 2 12 -3 11 -9 -2 -7 2 -13 7 -13 6 0
10 6 10 14 0 17 -27 29 -35 15z"/>
<path d="M636 1472 c-3 -6 -1 -14 5 -17 14 -9 20 -2 10 14 -6 8 -11 9 -15 3z"/>
<path d="M3662 1467 c-7 -8 -7 -18 -2 -27 9 -13 10 -13 10 0 0 13 1 13 10 0 6
-9 10 -10 10 -3 0 6 -5 15 -10 18 -6 4 -8 11 -5 16 9 14 -1 11 -13 -4z"/>
<path d="M3395 1460 c-3 -5 -1 -10 4 -10 6 0 11 5 11 10 0 6 -2 10 -4 10 -3 0
-8 -4 -11 -10z"/>
<path d="M3666 1388 c3 -5 10 -6 15 -3 13 9 11 12 -6 12 -8 0 -12 -4 -9 -9z"/>
<path d="M3724 1362 c4 -7 4 -12 -1 -12 -4 0 -6 -23 -4 -51 2 -35 6 -47 12
-38 13 20 11 97 -3 105 -7 4 -8 3 -4 -4z"/>
<path d="M810 1339 c0 -5 5 -7 10 -4 6 3 10 8 10 11 0 2 -4 4 -10 4 -5 0 -10
-5 -10 -11z"/>
<path d="M791 1314 c0 -11 3 -14 6 -6 3 7 2 16 -1 19 -3 4 -6 -2 -5 -13z"/>
<path d="M941 1184 c0 -11 3 -14 6 -6 3 7 2 16 -1 19 -3 4 -6 -2 -5 -13z"/>
<path d="M4479 1163 c-13 -16 -12 -17 4 -4 9 7 17 15 17 17 0 8 -8 3 -21 -13z"/>
<path d="M890 1145 c0 -8 2 -15 4 -15 2 0 6 7 10 15 3 8 1 15 -4 15 -6 0 -10
-7 -10 -15z"/>
<path d="M2929 1111 c8 -5 10 -14 6 -21 -5 -9 -4 -11 3 -6 7 4 12 3 12 -2 0
-5 7 -9 14 -9 11 0 9 7 -7 23 -12 13 -26 24 -32 24 -5 0 -4 -4 4 -9z"/>
<path d="M3600 1102 c0 -12 3 -12 18 -1 9 7 19 14 21 16 2 1 -6 1 -18 0 -11
-1 -21 -8 -21 -15z"/>
<path d="M930 1098 c0 -8 6 -21 14 -27 11 -10 14 -9 12 4 -1 8 -8 21 -14 27
-9 9 -12 8 -12 -4z"/>
<path d="M995 1080 c3 -5 8 -10 11 -10 2 0 4 5 4 10 0 6 -5 10 -11 10 -5 0 -7
-4 -4 -10z"/>
<path d="M1090 1069 c0 -5 5 -7 10 -4 6 3 10 8 10 11 0 2 -4 4 -10 4 -5 0 -10
-5 -10 -11z"/>
<path d="M1148 1015 c2 -14 9 -28 15 -32 6 -4 7 -1 2 7 -6 9 -2 10 16 5 l24
-7 -24 26 c-31 33 -40 33 -33 1z"/>
<path d="M3006 1015 c19 -18 25 -31 22 -50 -6 -30 5 -41 21 -21 8 10 9 16 1
21 -16 10 -12 25 7 25 15 0 15 2 -1 19 -10 11 -24 17 -31 15 -7 -3 -16 -1 -20
5 -3 6 -11 11 -16 11 -6 0 2 -11 17 -25z"/>
<path d="M988 943 c7 -3 16 -2 19 1 4 3 -2 6 -13 5 -11 0 -14 -3 -6 -6z"/>
<path d="M2920 745 c0 -14 4 -25 9 -25 4 0 6 11 3 25 -2 14 -6 25 -8 25 -2 0
-4 -11 -4 -25z"/>
<path d="M1888 733 c7 -3 16 -2 19 1 4 3 -2 6 -13 5 -11 0 -14 -3 -6 -6z"/>
<path d="M2007 289 c7 -7 15 -10 18 -7 3 3 -2 9 -12 12 -14 6 -15 5 -6 -5z"/>
</g>
</svg>
